<?xml version="1.0" encoding="UTF-8" standalone="no"?>
<!-- Created with Inkscape (http://www.inkscape.org/) -->

<svg
   xmlns:dc="http://purl.org/dc/elements/1.1/"
   xmlns:cc="http://creativecommons.org/ns#"
   xmlns:rdf="http://www.w3.org/1999/02/22-rdf-syntax-ns#"
   xmlns:svg="http://www.w3.org/2000/svg"
   xmlns="http://www.w3.org/2000/svg"
   xmlns:sodipodi="http://sodipodi.sourceforge.net/DTD/sodipodi-0.dtd"
   xmlns:inkscape="http://www.inkscape.org/namespaces/inkscape"
   id="svg2"
   xml:space="preserve"
   viewBox="0 0 21.602501 37.725"
   version="1.1"
   inkscape:version="0.91 r13725"
   sodipodi:docname="drink-ale.svg"
   width="21.602501"
   height="37.724998"><sodipodi:namedview
     pagecolor="#ffffff"
     bordercolor="#666666"
     borderopacity="1"
     objecttolerance="10"
     gridtolerance="10"
     guidetolerance="10"
     inkscape:pageopacity="0"
     inkscape:pageshadow="2"
     inkscape:window-width="1916"
     inkscape:window-height="1035"
     id="namedview9650"
     showgrid="false"
     inkscape:zoom="6.0242099"
     inkscape:cx="1.4960014"
     inkscape:cy="0.38814883"
     inkscape:window-x="4"
     inkscape:window-y="1"
     inkscape:window-maximized="1"
     inkscape:current-layer="g12"
     fit-margin-top="0"
     fit-margin-left="0"
     fit-margin-right="0"
     fit-margin-bottom="0" /><defs
     id="defs6"><clipPath
       id="clipPath18"><path
         id="path20"
         d="m 8.941,0.67 c 2.266,0 4.243,0.308 5.922,0.918 1.653,0.636 2.586,1.414 2.801,2.332 L 17.703,3.599 C 17.703,2.611 16.836,1.763 15.102,1.06 13.395,0.353 11.328,0.002 8.902,0.002 6.477,0.002 4.41,0.353 2.703,1.06 0.996,1.763 0.141,2.611 0.141,3.599 L 0.184,4.06 C 0.316,3.119 1.223,2.318 2.902,1.658 4.609,1.002 6.621,0.67 8.941,0.67 Z"
         inkscape:connector-curvature="0" /></clipPath><clipPath
       id="clipPath26"><path
         id="path28"
         d="m 0.022099,-48.159 22.5,0 0,8.4986 -22.5,0 0,-8.4986 z"
         inkscape:connector-curvature="0" /></clipPath><linearGradient
       id="linearGradient30"
       y2="-43.924999"
       gradientUnits="userSpaceOnUse"
       x2="22.1"
       y1="-43.924999"
       x1="0.1997"><stop
         id="stop32"
         style="stop-color:#ffffff;stop-opacity:.29799"
         offset="0" /><stop
         id="stop34"
         style="stop-color:#ffffff;stop-opacity:.36860"
         offset=".98820" /><stop
         id="stop36"
         style="stop-color:#ffffff;stop-opacity:.36860"
         offset="1" /></linearGradient><mask
       id="mask38"><g
         id="g40"><g
           id="g42"
           clip-path="url(#clipPath26)"><path
             id="path44"
             style="fill:url(#linearGradient30)"
             d="m 0.022099,-48.159 22.5,0 0,8.4986 -22.5,0 0,-8.4986 z"
             inkscape:connector-curvature="0" /></g></g></mask><linearGradient
       id="linearGradient48"
       y2="-43.924999"
       gradientUnits="userSpaceOnUse"
       x2="22.1"
       y1="-43.924999"
       x1="0.1997"><stop
         id="stop50"
         style="stop-color:#000000"
         offset="0" /><stop
         id="stop52"
         style="stop-color:#000000"
         offset="1" /></linearGradient><clipPath
       id="clipPath60"><path
         id="path62"
         d="M 17.703,4.271 C 17.703,3.283 16.848,2.435 15.141,1.728 13.438,1.025 11.367,0.67 8.941,0.67 6.516,0.67 4.449,1.025 2.742,1.728 1.035,2.435 0.184,3.283 0.184,4.271 c 0,0.989 0.851,1.824 2.558,2.508 1.707,0.703 3.774,1.059 6.199,1.059 2.426,0 4.497,-0.356 6.2,-1.059 1.707,-0.684 2.562,-1.519 2.562,-2.508 z"
         inkscape:connector-curvature="0" /></clipPath><clipPath
       id="clipPath68"><path
         id="path70"
         d="m 0.022099,-46.742 22.5,0 0,11.331 -22.5,0 0,-11.331 z"
         inkscape:connector-curvature="0" /></clipPath><linearGradient
       id="linearGradient72"
       y2="-40.773998"
       gradientUnits="userSpaceOnUse"
       x2="22.15"
       y1="-40.773998"
       x1="0.25"><stop
         id="stop74"
         style="stop-color:#ffffff;stop-opacity:.25879"
         offset="0" /><stop
         id="stop76"
         style="stop-color:#ffffff;stop-opacity:.25879"
         offset="1" /></linearGradient><mask
       id="mask78"><g
         id="g80"><g
           id="g82"
           clip-path="url(#clipPath68)"><path
             id="path84"
             style="fill:url(#linearGradient72)"
             d="m 0.022099,-46.742 22.5,0 0,11.331 -22.5,0 0,-11.331 z"
             inkscape:connector-curvature="0" /></g></g></mask><linearGradient
       id="linearGradient88"
       y2="-40.773998"
       gradientUnits="userSpaceOnUse"
       x2="22.15"
       y1="-40.773998"
       x1="0.25"><stop
         id="stop90"
         style="stop-color:#cde5fd"
         offset="0" /><stop
         id="stop92"
         style="stop-color:#93a9c1"
         offset="1" /></linearGradient><clipPath
       id="clipPath100"><path
         id="path102"
         d="m 15.223,6.744 c 1.652,-0.684 2.48,-1.508 2.48,-2.473 0,-0.988 -0.855,-1.836 -2.562,-2.543 C 13.438,1.025 11.367,0.67 8.941,0.67 6.516,0.67 4.449,1.025 2.742,1.728 1.035,2.435 0.184,3.283 0.184,4.271 c 0,0.59 0.332,1.141 1,1.66 0.64,0.493 1.531,0.907 2.679,1.235 C 2.98,6.744 2.395,6.365 2.102,6.037 1.703,5.564 1.676,5.025 2.023,4.412 2.609,3.353 4.047,2.599 6.344,2.154 c 2.211,-0.449 4.437,-0.449 6.679,0 1.653,0.328 2.665,0.988 3.039,1.977 0.321,0.918 0.04,1.789 -0.839,2.613 z"
         inkscape:connector-curvature="0" /></clipPath><clipPath
       id="clipPath108"><path
         id="path110"
         d="m 0.022099,-46.742 22.5,0 0,11.331 -22.5,0 0,-11.331 z"
         inkscape:connector-curvature="0" /></clipPath><linearGradient
       id="linearGradient112"
       y2="-41.25"
       gradientUnits="userSpaceOnUse"
       x2="22.15"
       y1="-41.25"
       x1="0.25"><stop
         id="stop114"
         style="stop-color:#ffffff;stop-opacity:.29799"
         offset="0" /><stop
         id="stop116"
         style="stop-color:#ffffff;stop-opacity:0"
         offset=".98820" /><stop
         id="stop118"
         style="stop-color:#ffffff;stop-opacity:0"
         offset="1" /></linearGradient><mask
       id="mask120"><g
         id="g122"><g
           id="g124"
           clip-path="url(#clipPath108)"><path
             id="path126"
             style="fill:url(#linearGradient112)"
             d="m 0.022099,-46.742 22.5,0 0,11.331 -22.5,0 0,-11.331 z"
             inkscape:connector-curvature="0" /></g></g></mask><linearGradient
       id="linearGradient130"
       y2="-41.25"
       gradientUnits="userSpaceOnUse"
       x2="22.15"
       y1="-41.25"
       x1="0.25"><stop
         id="stop132"
         style="stop-color:#ffffff"
         offset="0" /><stop
         id="stop134"
         style="stop-color:#ffffff"
         offset="1" /></linearGradient><clipPath
       id="clipPath154"><path
         id="path156"
         d="M 15.941,28.486 C 15.168,27.853 14.195,27.451 13.023,27.287 12.328,27.17 11.234,27.123 9.742,27.146 7.047,27.17 5.461,27.217 4.98,27.287 3.168,27.498 1.781,28.053 0.824,28.947 l 0,0.035 1.918,1.199 c 1.735,0.778 3.719,1.118 5.961,1.024 2.238,0.094 4.227,-0.223 5.961,-0.953 0.852,-0.375 1.492,-0.754 1.918,-1.129 l 0,-0.106 -0.641,-0.531 z"
         inkscape:connector-curvature="0" /></clipPath><clipPath
       id="clipPath162"><path
         id="path164"
         d="m 16319,-16331 21.25,0 0,7.083 -21.25,0 0,-7.083 z"
         inkscape:connector-curvature="0" /></clipPath><linearGradient
       id="linearGradient166"
       y2="-16327"
       gradientUnits="userSpaceOnUse"
       x2="16338"
       y1="-16327"
       x1="16320"><stop
         id="stop168"
         style="stop-color:#ffffff;stop-opacity:.25879"
         offset="0" /><stop
         id="stop170"
         style="stop-color:#ffffff;stop-opacity:.25879"
         offset="1" /></linearGradient><mask
       id="mask172"><g
         id="g174"><g
           id="g176"
           clip-path="url(#clipPath162)"><path
             id="path178"
             style="fill:url(#linearGradient166)"
             d="m 16319,-16331 21.25,0 0,7.083 -21.25,0 0,-7.083 z"
             inkscape:connector-curvature="0" /></g></g></mask><linearGradient
       id="linearGradient182"
       y2="-16327"
       gradientUnits="userSpaceOnUse"
       x2="16338"
       y1="-16327"
       x1="16320"><stop
         id="stop184"
         style="stop-color:#cde5fd"
         offset="0" /><stop
         id="stop186"
         style="stop-color:#93a9c1"
         offset="1" /></linearGradient><clipPath
       id="clipPath194"><path
         id="path196"
         d="m 21.223,14.756 c -0.453,-2.024 -1.387,-3.321 -2.801,-3.883 -0.188,-0.07 -0.719,-0.223 -1.598,-0.461 -0.59,-0.164 -0.988,-0.363 -1.203,-0.598 -0.504,-0.519 -0.824,-0.39 -0.957,0.387 -0.082,0.379 -0.121,1.035 -0.121,1.977 0,0.355 0.055,0.718 0.16,1.093 l 0.121,0.496 1.637,-0.211 c 1.121,0.024 1.789,0.457 2,1.305 0.402,1.484 0.508,2.813 0.32,3.988 -0.265,1.602 -1.105,2.239 -2.519,1.907 -1.465,-0.375 -2.215,-0.27 -2.239,0.32 0,0.398 0.293,0.937 0.879,1.621 0.852,1.059 2.012,1.508 3.481,1.344 1.121,-0.145 2,-1.098 2.64,-2.86 0.692,-1.906 0.758,-4.05 0.2,-6.425 z"
         inkscape:connector-curvature="0" /></clipPath><clipPath
       id="clipPath202"><path
         id="path204"
         d="m 17.522,-33.994 10,0 0,22.663 -10,0 0,-22.663 z"
         inkscape:connector-curvature="0" /></clipPath><linearGradient
       id="linearGradient206"
       y2="-23.021999"
       gradientUnits="userSpaceOnUse"
       x2="27"
       y1="-23.021999"
       x1="17.6"><stop
         id="stop208"
         style="stop-color:#ffffff;stop-opacity:.80780"
         offset="0" /><stop
         id="stop210"
         style="stop-color:#ffffff;stop-opacity:.25879"
         offset="1" /></linearGradient><mask
       id="mask212"><g
         id="g214"><g
           id="g216"
           clip-path="url(#clipPath202)"><path
             id="path218"
             style="fill:url(#linearGradient206)"
             d="m 17.522,-33.994 10,0 0,22.663 -10,0 0,-22.663 z"
             inkscape:connector-curvature="0" /></g></g></mask><linearGradient
       id="linearGradient222"
       y2="-23.021999"
       gradientUnits="userSpaceOnUse"
       x2="27"
       y1="-23.021999"
       x1="17.6"><stop
         id="stop224"
         style="stop-color:#cde5fd"
         offset="0" /><stop
         id="stop226"
         style="stop-color:#93a9c1"
         offset="1" /></linearGradient><clipPath
       id="clipPath236"><path
         id="path238"
         d="m 20.582,19.803 c 0.188,-1.504 0.133,-3 -0.16,-4.481 -0.266,-1.297 -0.465,-1.871 -0.598,-1.73 -0.16,0.164 -0.136,0.929 0.078,2.293 0.293,1.859 0.172,3.402 -0.359,4.625 -0.293,0.707 -0.773,1.351 -1.441,1.941 -0.504,0.445 -0.625,0.73 -0.36,0.848 0.266,0.093 0.696,0 1.281,-0.282 0.801,-0.402 1.321,-1.472 1.559,-3.214 z"
         inkscape:connector-curvature="0" /></clipPath><clipPath
       id="clipPath244"><path
         id="path246"
         d="m 24.891,-16314 15.586,0 0,5.002 -15.586,0 0,-5.002 z"
         inkscape:connector-curvature="0" /></clipPath><linearGradient
       id="linearGradient248"
       y2="-16311"
       gradientUnits="userSpaceOnUse"
       x2="38.595001"
       y1="-16311"
       x1="27.594999"><stop
         id="stop250"
         style="stop-color:#ffffff;stop-opacity:.75691"
         offset="0" /><stop
         id="stop252"
         style="stop-color:#ffffff;stop-opacity:0"
         offset=".98820" /><stop
         id="stop254"
         style="stop-color:#ffffff;stop-opacity:0"
         offset="1" /></linearGradient><mask
       id="mask256"><g
         id="g258"><g
           id="g260"
           clip-path="url(#clipPath244)"><path
             id="path262"
             style="fill:url(#linearGradient248)"
             d="m 24.891,-16314 15.586,0 0,5.002 -15.586,0 0,-5.002 z"
             inkscape:connector-curvature="0" /></g></g></mask><linearGradient
       id="linearGradient266"
       y2="-16311"
       gradientUnits="userSpaceOnUse"
       x2="38.595001"
       y1="-16311"
       x1="27.594999"><stop
         id="stop268"
         style="stop-color:#ffffff"
         offset="0" /><stop
         id="stop270"
         style="stop-color:#ffffff"
         offset="1" /></linearGradient><linearGradient
       id="linearGradient284"
       y2="-24.25"
       gradientUnits="userSpaceOnUse"
       x2="21.674999"
       gradientTransform="matrix(0.8,0,0,0.706,-0.017679,33.041)"
       y1="-24.25"
       x1="0.125"><stop
         id="stop286"
         style="stop-color:#feb228"
         offset="0" /><stop
         id="stop288"
         style="stop-color:#875605"
         offset="1" /></linearGradient><linearGradient
       id="linearGradient302"
       y2="-11.469"
       gradientUnits="userSpaceOnUse"
       x2="21.075001"
       gradientTransform="matrix(0.8,0,0,0.706,-0.017679,33.041)"
       y1="-11.469"
       x1="0.6997"><stop
         id="stop304"
         style="stop-color:#faf1d4"
         offset="0" /><stop
         id="stop306"
         style="stop-color:#ccbb82"
         offset="1" /></linearGradient><clipPath
       id="clipPath314"><path
         id="path316"
         d="m 0.824,28.982 1.918,-0.883 c 1.735,-0.613 3.719,-0.964 5.961,-1.058 2.238,0.094 4.227,0.445 5.961,1.058 0.852,0.305 1.492,0.598 1.918,0.883 L 17.344,9.318 c 0,-1.48 -0.11,-2.601 -0.321,-3.351 C 16.73,4.908 16.184,4.26 15.383,4.025 14.555,3.74 13.902,3.541 13.422,3.424 12.57,3.213 11.598,3.06 10.504,2.967 l -0.563,-0.106 -2.48,0 C 7.25,2.861 7.062,2.896 6.902,2.967 5.809,3.06 4.836,3.213 3.98,3.424 3.129,3.681 2.477,3.885 2.023,4.025 1.223,4.26 0.676,4.908 0.383,5.967 0.168,6.717 0.062,7.838 0.062,9.318 l 0.762,19.664 z"
         inkscape:connector-curvature="0" /></clipPath><clipPath
       id="clipPath322"><path
         id="path324"
         d="m 16317,-16326 22.5,0 0,38.243 -22.5,0 0,-38.243 z"
         inkscape:connector-curvature="0" /></clipPath><linearGradient
       id="linearGradient326"
       y2="-16308"
       gradientUnits="userSpaceOnUse"
       x2="16338"
       y1="-16308"
       x1="16320"><stop
         id="stop328"
         style="stop-color:#ffffff;stop-opacity:.25879"
         offset="0" /><stop
         id="stop330"
         style="stop-color:#ffffff;stop-opacity:.25879"
         offset="1" /></linearGradient><mask
       id="mask332"><g
         id="g334"><g
           id="g336"
           clip-path="url(#clipPath322)"><path
             id="path338"
             style="fill:url(#linearGradient326)"
             d="m 16317,-16326 22.5,0 0,38.243 -22.5,0 0,-38.243 z"
             inkscape:connector-curvature="0" /></g></g></mask><linearGradient
       id="linearGradient342"
       y2="-16308"
       gradientUnits="userSpaceOnUse"
       x2="16338"
       y1="-16308"
       x1="16320"><stop
         id="stop344"
         style="stop-color:#cde5fd"
         offset="0" /><stop
         id="stop346"
         style="stop-color:#93a9c1"
         offset="1" /></linearGradient><clipPath
       id="clipPath358"><path
         id="path360"
         d="M 2.301,28.205 C 2.293,28.053 2.285,27.9 2.281,27.744 l -0.539,0.18 0.559,0.281 z M 1.863,18.814 c 0.102,3.25 0.239,6.227 0.418,8.93 L 3.742,27.252 C 4.73,26.924 5.996,26.709 7.543,26.615 l 0.16,-0.988 C 7.781,24.826 7.809,24.041 7.781,23.263 7.754,22.627 7.797,19.31 7.902,13.306 7.902,7.568 7.637,4.494 7.102,4.095 6.383,3.599 5.648,3.435 4.902,3.599 4.074,3.791 3.355,4.365 2.742,5.33 2.207,6.224 1.891,8.084 1.781,10.908 1.73,12.556 1.754,15.189 1.863,18.814 Z"
         inkscape:connector-curvature="0" /></clipPath><clipPath
       id="clipPath366"><path
         id="path368"
         d="m -291.82,-42.493 10.072,0 0,36.827 -10.072,0 0,-36.827 z"
         inkscape:connector-curvature="0" /></clipPath><linearGradient
       id="linearGradient370"
       y2="-24.318001"
       gradientUnits="userSpaceOnUse"
       x2="-282.26999"
       y1="-24.318001"
       x1="-290.87"><stop
         id="stop372"
         style="stop-color:#ffffff;stop-opacity:.51760"
         offset="0" /><stop
         id="stop374"
         style="stop-color:#ffffff;stop-opacity:0"
         offset=".98820" /><stop
         id="stop376"
         style="stop-color:#ffffff;stop-opacity:0"
         offset="1" /></linearGradient><mask
       id="mask378"><g
         id="g380"><g
           id="g382"
           clip-path="url(#clipPath366)"><path
             id="path384"
             style="fill:url(#linearGradient370)"
             d="m -291.82,-42.493 10.072,0 0,36.827 -10.072,0 0,-36.827 z"
             inkscape:connector-curvature="0" /></g></g></mask><linearGradient
       id="linearGradient388"
       y2="-24.318001"
       gradientUnits="userSpaceOnUse"
       x2="-282.26999"
       y1="-24.318001"
       x1="-290.87"><stop
         id="stop390"
         style="stop-color:#ffffff"
         offset="0" /><stop
         id="stop392"
         style="stop-color:#ffffff"
         offset="1" /></linearGradient><clipPath
       id="clipPath400"><path
         id="path402"
         d="m 12.941,27.287 2.082,0.531 C 15.637,20.592 15.836,15.306 15.621,11.967 15.516,9.873 14.902,8.037 13.781,6.459 13.25,5.662 12.715,5.072 12.184,4.693 c 0.265,0.262 0.546,0.731 0.839,1.414 0.532,1.363 0.801,3.094 0.801,5.188 0,3.343 -0.297,8.672 -0.883,15.992 z"
         inkscape:connector-curvature="0" /></clipPath><clipPath
       id="clipPath408"><path
         id="path410"
         d="m -428.67,-15857 34.218,0 0,6.879 -34.218,0 0,-6.879 z"
         inkscape:connector-curvature="0" /></clipPath><linearGradient
       id="linearGradient412"
       y2="-15854"
       gradientUnits="userSpaceOnUse"
       x2="-404.70999"
       y1="-15854"
       x1="-428.13"><stop
         id="stop414"
         style="stop-color:#ffffff;stop-opacity:.29799"
         offset="0" /><stop
         id="stop416"
         style="stop-color:#ffffff;stop-opacity:0"
         offset=".98820" /><stop
         id="stop418"
         style="stop-color:#ffffff;stop-opacity:0"
         offset="1" /></linearGradient><mask
       id="mask420"><g
         id="g422"><g
           id="g424"
           clip-path="url(#clipPath408)"><path
             id="path426"
             style="fill:url(#linearGradient412)"
             d="m -428.67,-15857 34.218,0 0,6.879 -34.218,0 0,-6.879 z"
             inkscape:connector-curvature="0" /></g></g></mask><linearGradient
       id="linearGradient430"
       y2="-15854"
       gradientUnits="userSpaceOnUse"
       x2="-404.70999"
       y1="-15854"
       x1="-428.13"><stop
         id="stop432"
         style="stop-color:#ffffff"
         offset="0" /><stop
         id="stop434"
         style="stop-color:#ffffff"
         offset="1" /></linearGradient><linearGradient
       id="linearGradient452"
       y2="-12.592"
       gradientUnits="userSpaceOnUse"
       x2="20.200001"
       gradientTransform="matrix(0.8,0,0,0.706,-0.017679,33.041)"
       y1="-12.592"
       x1="1.5"><stop
         id="stop454"
         style="stop-color:#f9f3e1"
         offset="0" /><stop
         id="stop456"
         style="stop-color:#e4d8b3"
         offset="1" /></linearGradient></defs><g
     id="g10"
     transform="matrix(1.25,0,0,-1.25,-0.0775,41.30125)"><g
       id="g12"><g
         id="g14"><g
           id="g16"
           clip-path="url(#clipPath18)"><g
             id="g22"
             transform="matrix(0.8,0,0,0.706,-0.017679,33.041)"><g
               id="g46"
               mask="url(#mask38)"><path
                 id="path54"
                 style="fill:url(#linearGradient48);fill-rule:evenodd"
                 d="m 8.941,0.67 c 2.266,0 4.243,0.308 5.922,0.918 1.653,0.636 2.586,1.414 2.801,2.332 L 17.703,3.599 C 17.703,2.611 16.836,1.763 15.102,1.06 13.395,0.353 11.328,0.002 8.902,0.002 6.477,0.002 4.41,0.353 2.703,1.06 0.996,1.763 0.141,2.611 0.141,3.599 L 0.184,4.06 C 0.316,3.119 1.223,2.318 2.902,1.658 4.609,1.002 6.621,0.67 8.941,0.67 Z"
                 inkscape:connector-curvature="0" /></g></g></g></g><g
         id="g56"><g
           id="g58"
           clip-path="url(#clipPath60)"><g
             id="g64"
             transform="matrix(0.8,0,0,0.706,-0.017679,33.041)"><g
               id="g86"
               mask="url(#mask78)"><path
                 id="path94"
                 style="fill:url(#linearGradient88);fill-rule:evenodd"
                 d="M 17.703,4.271 C 17.703,3.283 16.848,2.435 15.141,1.728 13.438,1.025 11.367,0.67 8.941,0.67 6.516,0.67 4.449,1.025 2.742,1.728 1.035,2.435 0.184,3.283 0.184,4.271 c 0,0.989 0.851,1.824 2.558,2.508 1.707,0.703 3.774,1.059 6.199,1.059 2.426,0 4.497,-0.356 6.2,-1.059 1.707,-0.684 2.562,-1.519 2.562,-2.508 z"
                 inkscape:connector-curvature="0" /></g></g></g></g><g
         id="g96"><g
           id="g98"
           clip-path="url(#clipPath100)"><g
             id="g104"
             transform="matrix(0.8,0,0,0.706,-0.017679,33.041)"><g
               id="g128"
               mask="url(#mask120)"><path
                 id="path136"
                 style="fill:url(#linearGradient130);fill-rule:evenodd"
                 d="m 15.223,6.744 c 1.652,-0.684 2.48,-1.508 2.48,-2.473 0,-0.988 -0.855,-1.836 -2.562,-2.543 C 13.438,1.025 11.367,0.67 8.941,0.67 6.516,0.67 4.449,1.025 2.742,1.728 1.035,2.435 0.184,3.283 0.184,4.271 c 0,0.59 0.332,1.141 1,1.66 0.64,0.493 1.531,0.907 2.679,1.235 C 2.98,6.744 2.395,6.365 2.102,6.037 1.703,5.564 1.676,5.025 2.023,4.412 2.609,3.353 4.047,2.599 6.344,2.154 c 2.211,-0.449 4.437,-0.449 6.679,0 1.653,0.328 2.665,0.988 3.039,1.977 0.321,0.918 0.04,1.789 -0.839,2.613 z"
                 inkscape:connector-curvature="0" /></g></g></g></g><path
         id="path138"
         style="fill:#e2e2e2;fill-rule:evenodd"
         d="m 0.79242673,5.9980797 c 0.21499997,0.094 0.37499997,-0.07 0.48099997,-0.496 0.16,-0.656 0.9987892,-0.8817289 1.3697892,-1.2797289 0.402,-0.402 0.2714939,-0.9160241 -0.2085061,-0.8460241 -0.477,0.047 -1.3992831,0.352753 -1.79828307,0.820753 -0.375,0.446 -0.523,0.836 -0.441,1.164 0.078,0.286 0.281,0.496 0.597,0.637 z"
         inkscape:connector-curvature="0"
         sodipodi:nodetypes="ccccccc" /><path
         id="path140"
         style="fill:#e2e2e2;fill-rule:evenodd"
         d="m 3.7815301,3.4675783 c 0.293,-0.141 0.359,-0.281 0.199,-0.422 -0.16,-0.121 -0.336,-0.094 -0.52,0.07 -0.16,0.164 -0.199,0.282 -0.121,0.352 0.078,0.07 0.227,0.07 0.442,0 z"
         inkscape:connector-curvature="0" /><path
         id="path142"
         style="fill:#e2e2e2;fill-rule:evenodd"
         d="m 16.081482,4.4118253 c 0.238,0.352 0.398,0.66 0.48,0.918 0.078,0.258 0.145,0.434 0.199,0.531 0.239,0.305 0.399,0.176 0.481,-0.39 0.051,-0.516 -0.227,-0.989 -0.84,-1.41 -0.668,-0.45 -1.837789,-0.2464699 -2.369789,-0.2694699 0.746,0.375 1.807789,0.2924699 2.049789,0.6204699 z"
         inkscape:connector-curvature="0"
         sodipodi:nodetypes="ccccccc" /><path
         id="path146"
         style="fill:#bccdde;fill-rule:evenodd"
         d="M 12.824,7.553 C 14.531,7.181 15.676,6.752 16.262,6.267 16.027,6.404 15.465,6.635 14.582,6.955 13.863,7.213 13.008,7.4 12.023,7.517 l -1.199,0.145 0.078,0.105 0.239,0.071 c 0.32,0 0.882,-0.094 1.683,-0.285 z"
         inkscape:connector-curvature="0" /><g
         id="g150"><g
           id="g152"
           clip-path="url(#clipPath154)"><g
             id="g158"
             transform="matrix(-0.8,0,0,-0.706,13072,-11497)"><g
               id="g180"
               mask="url(#mask172)"><path
                 id="path188"
                 style="fill:url(#linearGradient182);fill-rule:evenodd"
                 d="M 15.941,28.486 C 15.168,27.853 14.195,27.451 13.023,27.287 12.328,27.17 11.234,27.123 9.742,27.146 7.047,27.17 5.461,27.217 4.98,27.287 3.168,27.498 1.781,28.053 0.824,28.947 l 0,0.035 1.918,1.199 c 1.735,0.778 3.719,1.118 5.961,1.024 2.238,0.094 4.227,-0.223 5.961,-0.953 0.852,-0.375 1.492,-0.754 1.918,-1.129 l 0,-0.106 -0.641,-0.531 z"
                 inkscape:connector-curvature="0" /></g></g></g></g><g
         id="g190"><g
           id="g192"
           clip-path="url(#clipPath194)"><g
             id="g198"
             transform="matrix(0.8,0,0,0.706,-0.017679,33.041)"><g
               id="g220"
               mask="url(#mask212)"><path
                 id="path228"
                 style="fill:url(#linearGradient222);fill-rule:evenodd"
                 d="m 21.223,14.756 c -0.453,-2.024 -1.387,-3.321 -2.801,-3.883 -0.188,-0.07 -0.719,-0.223 -1.598,-0.461 -0.59,-0.164 -0.988,-0.363 -1.203,-0.598 -0.504,-0.519 -0.824,-0.39 -0.957,0.387 -0.082,0.379 -0.121,1.035 -0.121,1.977 0,0.355 0.055,0.718 0.16,1.093 l 0.121,0.496 1.637,-0.211 c 1.121,0.024 1.789,0.457 2,1.305 0.402,1.484 0.508,2.813 0.32,3.988 -0.265,1.602 -1.105,2.239 -2.519,1.907 -1.465,-0.375 -2.215,-0.27 -2.239,0.32 0,0.398 0.293,0.937 0.879,1.621 0.852,1.059 2.012,1.508 3.481,1.344 1.121,-0.145 2,-1.098 2.64,-2.86 0.692,-1.906 0.758,-4.05 0.2,-6.425 z"
                 inkscape:connector-curvature="0" /></g></g></g></g><g
         id="g232"><g
           id="g234"
           clip-path="url(#clipPath236)"><g
             id="g240"
             transform="matrix(7.2727e-5,-0.706,0.8,-7.06e-4,13068,30.1)"><g
               id="g264"
               mask="url(#mask256)"><path
                 id="path272"
                 style="fill:url(#linearGradient266);fill-rule:evenodd"
                 d="m 20.582,19.803 c 0.188,-1.504 0.133,-3 -0.16,-4.481 -0.266,-1.297 -0.465,-1.871 -0.598,-1.73 -0.16,0.164 -0.136,0.929 0.078,2.293 0.293,1.859 0.172,3.402 -0.359,4.625 -0.293,0.707 -0.773,1.351 -1.441,1.941 -0.504,0.445 -0.625,0.73 -0.36,0.848 0.266,0.093 0.696,0 1.281,-0.282 0.801,-0.402 1.321,-1.472 1.559,-3.214 z"
                 inkscape:connector-curvature="0" /></g></g></g></g><g
         id="g274"><g
           id="g276"><g
             id="g282"><path
               id="path290"
               style="fill:url(#linearGradient284);fill-rule:evenodd"
               d="m 0.824,28.982 1.918,-0.883 c 1.735,-0.613 3.719,-0.964 5.961,-1.058 2.238,0.094 4.227,0.445 5.961,1.058 0.852,0.305 1.492,0.598 1.918,0.883 L 17.344,9.318 c 0,-1.48 -0.11,-2.601 -0.321,-3.351 C 16.73,4.908 16.184,4.26 15.383,4.025 14.555,3.74 13.902,3.541 13.422,3.424 12.57,3.213 11.598,3.06 10.504,2.967 l -0.563,-0.106 -2.48,0 C 7.25,2.861 7.062,2.896 6.902,2.967 5.809,3.06 4.836,3.213 3.98,3.424 3.129,3.681 2.477,3.885 2.023,4.025 1.223,4.26 0.676,4.908 0.383,5.967 0.168,6.717 0.062,7.838 0.062,9.318 l 0.762,19.664 z"
               inkscape:connector-curvature="0" /></g></g></g><g
         id="g292"><g
           id="g294"><g
             id="g300"><path
               id="path308"
               style="fill:url(#linearGradient302);fill-rule:evenodd"
               d="m 14.664,28.099 c 0.852,0.305 1.492,0.598 1.918,0.883 l 0.281,-6.285 C 15.797,21.92 14.316,21.404 12.422,21.146 10.902,20.931 8.824,20.861 6.184,20.931 4.047,20.978 2.168,21.416 0.543,22.24 l 0.281,6.742 1.918,-0.883 c 1.735,-0.613 3.719,-0.964 5.961,-1.058 2.238,0.094 4.227,0.445 5.961,1.058 z"
               inkscape:connector-curvature="0" /></g></g></g><g
         id="g310"><g
           id="g312"
           clip-path="url(#clipPath314)"><g
             id="g318"
             transform="matrix(-0.8,0,0,-0.706,13072,-11497)"><g
               id="g340"
               mask="url(#mask332)"><path
                 id="path348"
                 style="fill:url(#linearGradient342);fill-rule:evenodd"
                 d="m 0.824,28.982 1.918,-0.883 c 1.735,-0.613 3.719,-0.964 5.961,-1.058 2.238,0.094 4.227,0.445 5.961,1.058 0.852,0.305 1.492,0.598 1.918,0.883 L 17.344,9.318 c 0,-1.48 -0.11,-2.601 -0.321,-3.351 C 16.73,4.908 16.184,4.26 15.383,4.025 14.555,3.74 13.902,3.541 13.422,3.424 12.57,3.213 11.598,3.06 10.504,2.967 l -0.563,-0.106 -2.48,0 C 7.25,2.861 7.062,2.896 6.902,2.967 5.809,3.06 4.836,3.213 3.98,3.424 3.129,3.681 2.477,3.885 2.023,4.025 1.223,4.26 0.676,4.908 0.383,5.967 0.168,6.717 0.062,7.838 0.062,9.318 l 0.762,19.664 z"
                 inkscape:connector-curvature="0" /></g></g></g></g><path
         id="path350"
         style="fill:#272e35;fill-opacity:1;fill-rule:evenodd"
         d="m 16.703,14.189 c -0.055,3.059 -0.16,5.969 -0.32,8.719 l -0.442,5.578 0.082,0.176 0.559,0.32 0.762,-19.664 c 0,-1.48 -0.11,-2.601 -0.321,-3.351 C 16.73,4.908 16.184,4.26 15.383,4.025 14.555,3.74 13.902,3.541 13.422,3.424 12.57,3.213 11.598,3.06 10.504,2.967 10.344,2.896 10.184,2.861 10.023,2.861 9.648,3.025 9.195,3.142 8.664,3.213 c 0.133,0.023 0.359,0.035 0.68,0.035 1.679,0 3.211,0.316 4.597,0.953 1.2,0.566 2.016,1.211 2.442,1.941 0.32,0.567 0.426,3.246 0.32,8.047 z"
         inkscape:connector-curvature="0" /><path
         id="path352"
         style="fill:#272e35;fill-opacity:1;fill-rule:evenodd"
         d="M 0.824,28.982 1.301,28.697 1.383,28.486 C 1.41,28.205 1.277,26.345 0.98,22.908 0.824,20.72 0.703,17.814 0.621,14.189 0.543,9.388 0.664,6.709 0.98,6.142 1.383,5.412 2.195,4.767 3.422,4.201 4.809,3.564 6.328,3.248 7.98,3.248 8.301,3.248 8.527,3.236 8.664,3.213 9.195,3.142 9.648,3.025 10.023,2.861 l -2.562,0 C 7.25,2.861 7.062,2.896 6.902,2.967 5.809,3.06 4.836,3.213 3.98,3.424 3.129,3.681 2.477,3.885 2.023,4.025 1.223,4.26 0.676,4.908 0.383,5.967 0.168,6.717 0.062,7.838 0.062,9.318 l 0.762,19.664 z"
         inkscape:connector-curvature="0" /><g
         id="g354"><g
           id="g356"
           clip-path="url(#clipPath358)"><g
             id="g362"
             transform="matrix(0.8,0,0.02872,0.706,234.62,33.041)"><g
               id="g386"
               mask="url(#mask378)"><path
                 id="path394"
                 style="fill:url(#linearGradient388);fill-rule:evenodd"
                 d="M 2.301,28.205 C 2.293,28.053 2.285,27.9 2.281,27.744 l -0.539,0.18 0.559,0.281 z M 1.863,18.814 c 0.102,3.25 0.239,6.227 0.418,8.93 L 3.742,27.252 C 4.73,26.924 5.996,26.709 7.543,26.615 l 0.16,-0.988 C 7.781,24.826 7.809,24.041 7.781,23.263 7.754,22.627 7.797,19.31 7.902,13.306 7.902,7.568 7.637,4.494 7.102,4.095 6.383,3.599 5.648,3.435 4.902,3.599 4.074,3.791 3.355,4.365 2.742,5.33 2.207,6.224 1.891,8.084 1.781,10.908 1.73,12.556 1.754,15.189 1.863,18.814 Z"
                 inkscape:connector-curvature="0" /></g></g></g></g><g
         id="g396"><g
           id="g398"
           clip-path="url(#clipPath400)"><g
             id="g404"
             transform="matrix(0.0444,-0.70494,0.7988,0.039183,12696,347.1)"><g
               id="g428"
               mask="url(#mask420)"><path
                 id="path436"
                 style="fill:url(#linearGradient430);fill-rule:evenodd"
                 d="m 12.941,27.287 2.082,0.531 C 15.637,20.592 15.836,15.306 15.621,11.967 15.516,9.873 14.902,8.037 13.781,6.459 13.25,5.662 12.715,5.072 12.184,4.693 c 0.265,0.262 0.546,0.731 0.839,1.414 0.532,1.363 0.801,3.094 0.801,5.188 0,3.343 -0.297,8.672 -0.883,15.992 z"
                 inkscape:connector-curvature="0" /></g></g></g></g><path
         id="path438"
         style="fill:#272e35;fill-opacity:1;fill-rule:evenodd"
         d="m 14.383,30.568 c 1.574,-0.445 2.359,-0.976 2.359,-1.586 0,-0.613 -0.785,-1.129 -2.359,-1.554 -1.574,-0.422 -3.469,-0.637 -5.68,-0.637 -2.215,0 -4.105,0.215 -5.68,0.637 -1.574,0.425 -2.359,0.941 -2.359,1.554 0,0.61 0.785,1.141 2.359,1.586 1.575,0.426 3.465,0.637 5.68,0.637 2.211,0 4.106,-0.211 5.68,-0.637 z m -0.602,-0.07 c -1.414,0.379 -3.105,0.566 -5.078,0.566 -1.973,0 -3.668,-0.187 -5.082,-0.566 -1.387,-0.375 -2.078,-0.836 -2.078,-1.375 0,-0.543 0.691,-1 2.078,-1.379 1.387,-0.375 3.082,-0.563 5.082,-0.563 2,0 3.692,0.188 5.078,0.563 1.387,0.379 2.082,0.836 2.082,1.379 0,0.539 -0.695,1 -2.082,1.375 z"
         inkscape:connector-curvature="0" /><path
         id="path440"
         style="fill:#816f60;fill-rule:evenodd"
         d="m 8.902,33.006 c 0.934,0 1.762,-0.164 2.481,-0.496 0.453,-0.211 1.121,-0.399 2,-0.563 0.64,-0.117 1.066,-0.305 1.281,-0.566 1.332,-1.672 1.785,-2.672 1.359,-3 -0.187,-0.188 -0.335,-0.317 -0.441,-0.387 -0.105,-0.047 -0.465,-0.176 -1.078,-0.391 -0.641,-0.234 -1.27,-0.351 -1.883,-0.351 l -0.68,0.07 -0.039,-1.023 c -0.027,-0.848 -0.011,-1.684 0.039,-2.508 0.403,-4.942 0.602,-7.481 0.602,-7.625 0,-0.68 -0.242,-1.27 -0.719,-1.762 -0.508,-0.496 -0.933,-0.414 -1.281,0.246 -0.266,0.516 -0.309,1.07 -0.121,1.66 0.32,0.918 0.492,1.575 0.519,1.977 0.055,0.75 0.082,1.777 0.082,3.07 -0.054,1.34 -0.082,2.199 -0.082,2.578 0,0.469 -0.066,1.106 -0.199,1.903 L 10.543,26.9 C 9.102,26.806 8.156,26.756 7.703,26.756 l -1.84,0.144 0.16,-2.015 c 0,-1.317 -0.293,-1.918 -0.882,-1.797 -0.637,0.117 -1.012,0.422 -1.118,0.918 -0.082,0.281 -0.043,0.82 0.118,1.621 0.109,0.519 0.136,0.953 0.082,1.308 l -0.082,0.387 c -0.477,0.117 -0.934,0.246 -1.36,0.387 -0.824,0.285 -1.066,0.519 -0.719,0.707 l 0.239,0.461 c -0.078,0.281 -0.094,0.586 -0.039,0.918 0.105,0.656 0.453,1.14 1.039,1.445 1.656,0.824 2.828,1.344 3.523,1.555 0.61,0.164 1.305,0.234 2.078,0.211 z"
         inkscape:connector-curvature="0" /><g
         id="g442"><g
           id="g444"><g
             id="g450"><path
               id="path458"
               style="fill:url(#linearGradient452);fill-rule:evenodd"
               d="m 11.141,32.545 c 0.48,-0.188 1.187,-0.364 2.121,-0.528 0.668,-0.117 1.105,-0.293 1.32,-0.531 0.426,-0.445 0.813,-0.953 1.16,-1.516 0.426,-0.707 0.52,-1.14 0.281,-1.308 -0.214,-0.188 -0.375,-0.305 -0.48,-0.352 -0.105,-0.047 -0.481,-0.175 -1.121,-0.386 -0.692,-0.215 -1.348,-0.321 -1.961,-0.321 l -0.719,0.071 -0.039,-0.954 c -0.027,-0.796 -0.015,-1.585 0.039,-2.363 0.399,-4.59 0.602,-6.965 0.602,-7.129 0,-0.66 -0.254,-1.215 -0.762,-1.66 -0.559,-0.473 -1.012,-0.402 -1.359,0.211 -0.266,0.516 -0.293,1.047 -0.082,1.59 0.347,0.871 0.535,1.492 0.562,1.871 0.051,0.68 0.067,1.633 0.039,2.859 -0.027,1.246 -0.039,2.047 -0.039,2.399 0,0.449 -0.082,1.047 -0.242,1.801 l -0.238,0.988 C 8.73,27.193 7.742,27.146 7.262,27.146 l -1.961,0.141 0.203,-1.906 c 0,-1.223 -0.32,-1.778 -0.961,-1.661 -0.668,0.118 -1.055,0.403 -1.16,0.848 -0.082,0.258 -0.039,0.766 0.121,1.52 0.105,0.492 0.133,0.906 0.078,1.234 L 3.504,27.674 C 2.996,27.771 2.527,27.888 2.102,28.029 1.223,28.31 0.957,28.533 1.301,28.697 l 0.242,0.426 c -0.082,0.258 -0.094,0.551 -0.039,0.883 0.105,0.632 0.476,1.093 1.117,1.375 1.84,0.8 3.082,1.285 3.723,1.449 0.636,0.14 1.359,0.211 2.16,0.211 1.012,-0.024 1.891,-0.188 2.637,-0.496 z"
               inkscape:connector-curvature="0" /></g></g></g><path
         id="path460"
         style="fill:#fffdf4;fill-rule:evenodd"
         d="m 4.184,31.631 c 0.16,0.093 0.332,0.164 0.519,0.211 l 0.238,0.07 -0.039,-0.106 C 4.77,31.642 4.527,31.584 4.184,31.631 Z"
         inkscape:connector-curvature="0" /><path
         id="path462"
         style="fill:#fffdf4;fill-rule:evenodd"
         d="m 5.941,32.053 0.36,0.14 0.32,0.176 0.043,0 c 0.16,-0.141 0.117,-0.246 -0.121,-0.316 -0.215,-0.071 -0.414,-0.071 -0.602,0 z"
         inkscape:connector-curvature="0" /><path
         id="path464"
         style="fill:#fffdf4;fill-rule:evenodd"
         d="m 7.781,32.689 c 0.563,0.094 1.414,0.094 2.563,0 0.051,-0.164 0.105,-0.273 0.16,-0.32 l -0.442,-0.07 c -1.386,-0.164 -2.16,-0.106 -2.32,0.175 -0.054,0.121 -0.039,0.192 0.039,0.215 z"
         inkscape:connector-curvature="0" /><path
         id="path466"
         style="fill:#fffdf4;fill-rule:evenodd"
         d="m 9.102,31.666 c -0.079,-0.024 -0.239,-0.024 -0.481,0 -0.266,0.023 -0.414,0.058 -0.437,0.105 -0.11,0.117 -0.094,0.223 0.039,0.317 0.105,0.07 0.254,0.117 0.441,0.14 l 0.68,0 C 9.395,31.924 9.316,31.736 9.102,31.666 Z"
         inkscape:connector-curvature="0" /><path
         id="path468"
         style="fill:#fffdf4;fill-rule:evenodd"
         d="m 7.141,31.17 -0.118,0 -0.281,-0.106 c -0.375,-0.047 -0.64,0.024 -0.801,0.211 0.082,0.164 0.215,0.281 0.403,0.356 l 1.117,-0.075 c 0,-0.164 -0.106,-0.293 -0.32,-0.386 z"
         inkscape:connector-curvature="0" /><path
         id="path470"
         style="fill:#fffdf4;fill-rule:evenodd"
         d="m 3.664,31.029 0.52,0.07 C 4.262,30.58 4.074,30.275 3.621,30.181 L 2.824,30.252 2.781,30.146 c -0.504,0 -0.851,0.094 -1.039,0.282 0.106,0.117 0.227,0.21 0.36,0.285 l 0.96,-0.075 0.442,0.426 0.16,-0.035 z"
         inkscape:connector-curvature="0" /><path
         id="path472"
         style="fill:#fffdf4;fill-rule:evenodd"
         d="m 2.781,30.146 0.043,0.106 0.797,-0.071 0.203,0 c 0.051,-0.304 -0.136,-0.457 -0.562,-0.457 -0.426,0 -0.586,0.141 -0.481,0.422 z"
         inkscape:connector-curvature="0" /><path
         id="path474"
         style="fill:#fffdf4;fill-rule:evenodd"
         d="M 2.621,29.193 C 2.516,29.006 2.383,29.111 2.223,29.51 l 0.398,-0.317 z"
         inkscape:connector-curvature="0" /><path
         id="path476"
         style="fill:#fffdf4;fill-rule:evenodd"
         d="m 2.023,28.771 -0.16,-0.074 -0.121,0.039 -0.039,0.07 0.078,0.247 c 0.16,0 0.242,-0.094 0.242,-0.282 z"
         inkscape:connector-curvature="0" /><path
         id="path478"
         style="fill:#fffdf4;fill-rule:evenodd"
         d="m 5.703,28.771 c -0.265,0.141 -0.281,0.282 -0.039,0.422 0.184,0.094 0.41,0.152 0.68,0.176 l 0.437,-0.176 c 0.133,-0.047 0.215,-0.14 0.242,-0.281 0.051,-0.117 0.024,-0.227 -0.082,-0.32 -0.078,-0.071 -0.293,-0.071 -0.64,0 -0.293,0.046 -0.492,0.105 -0.598,0.179 z"
         inkscape:connector-curvature="0" /><path
         id="path480"
         style="fill:#fffdf4;fill-rule:evenodd"
         d="M 6.941,29.724 C 6.969,29.58 6.902,29.51 6.742,29.51 c -0.16,0 -0.281,0.046 -0.359,0.14 l 0.199,0.145 0.359,-0.071 z"
         inkscape:connector-curvature="0" /><path
         id="path482"
         style="fill:#fffdf4;fill-rule:evenodd"
         d="m 8.621,29.369 c -0.133,-0.024 -0.277,0 -0.437,0.07 -0.161,0.047 -0.243,0.141 -0.243,0.285 0.133,0.094 0.321,0.141 0.563,0.141 L 8.742,29.9 c 0.16,-0.07 0.227,-0.164 0.199,-0.285 -0.05,-0.117 -0.16,-0.199 -0.32,-0.246 z"
         inkscape:connector-curvature="0" /><path
         id="path484"
         style="fill:#fffdf4;fill-rule:evenodd"
         d="m 9.062,30.603 0,-0.035 0.079,0 0.281,-0.14 C 9.344,30.31 9.195,30.252 8.98,30.252 c -0.21,0 -0.371,0.058 -0.476,0.176 l 0.238,0.355 0.32,-0.18 z"
         inkscape:connector-curvature="0" /><path
         id="path486"
         style="fill:#fffdf4;fill-rule:evenodd"
         d="m 11.141,31.029 c 0,-0.211 -0.133,-0.332 -0.399,-0.351 -0.187,0 -0.398,0.035 -0.64,0.105 -0.028,0.141 0.105,0.234 0.402,0.281 0.133,0.047 0.32,0.082 0.558,0.106 l 0.079,-0.141 z"
         inkscape:connector-curvature="0" /><path
         id="path488"
         style="fill:#fffdf4;fill-rule:evenodd"
         d="m 12.344,31.556 0,0.145 0.558,0.211 0.559,0.035 0.519,-0.391 c -0.078,-0.164 -0.371,-0.246 -0.878,-0.246 -0.481,0 -0.735,0.082 -0.758,0.246 z"
         inkscape:connector-curvature="0" /><path
         id="path490"
         style="fill:#fffdf4;fill-rule:evenodd"
         d="m 7.543,31.099 c 0.055,-0.472 -0.148,-0.742 -0.602,-0.812 -0.64,0 -0.984,0.047 -1.039,0.141 -0.054,0.191 0.227,0.402 0.84,0.636 l 0.281,0.106 0.118,0 0.402,-0.071 z"
         inkscape:connector-curvature="0" /><path
         id="path492"
         style="fill:#fffdf4;fill-rule:evenodd"
         d="M 5.664,30.959 C 5.715,30.795 5.609,30.678 5.344,30.603 5.129,30.556 4.93,30.568 4.742,30.638 c -0.215,0.098 -0.187,0.215 0.082,0.356 0.156,0.07 0.344,0.129 0.559,0.176 l 0.281,-0.211 z"
         inkscape:connector-curvature="0" /><path
         id="path494"
         style="fill:#fffdf4;fill-rule:evenodd"
         d="m 8.504,33.041 c 1.012,-0.024 1.891,-0.188 2.637,-0.496 0.375,-0.141 1.015,-0.305 1.921,-0.492 l -0.16,-0.141 -0.558,-0.211 C 12.207,31.654 11.715,31.545 10.863,31.381 10.598,31.334 10.355,31.228 10.141,31.064 9.902,30.9 9.691,30.771 9.504,30.678 9.395,30.603 9.277,30.568 9.141,30.568 l -0.079,0 0,0.035 c -0.054,0.239 0.079,0.426 0.399,0.567 0.16,0.093 0.402,0.222 0.723,0.386 0.05,0.047 0.093,0.145 0.117,0.286 l 0.523,0.246 c -0.109,0.047 -0.215,0.14 -0.32,0.281 -0.055,0.047 -0.109,0.156 -0.16,0.32 -1.149,0.094 -2,0.094 -2.563,0 -0.398,-0.023 -0.785,-0.129 -1.16,-0.32 l -0.32,-0.176 -0.36,-0.14 c -0.132,-0.047 -0.464,-0.094 -1,-0.141 L 4.703,31.842 C 4.516,31.795 4.344,31.724 4.184,31.631 3.863,31.392 3.637,31.205 3.504,31.064 l -0.442,-0.426 -1.238,0.11 c 0.156,0.234 0.426,0.445 0.797,0.633 1.84,0.8 3.082,1.285 3.723,1.449 0.636,0.14 1.359,0.211 2.16,0.211 z"
         inkscape:connector-curvature="0" /><path
         id="path496"
         style="fill:#fffdf4;fill-rule:evenodd"
         d="m 3.582,27.322 -0.078,0.352 -0.121,1.168 c 0.293,-0.426 0.453,-0.719 0.48,-0.883 l 0,-0.883 c 0,-0.473 0.039,-0.754 0.117,-0.848 0.055,-0.117 0.176,-0.234 0.364,-0.351 l 0,-0.567 c 0.023,-0.093 0.117,-0.152 0.277,-0.175 0.082,-0.426 0.016,-0.696 -0.199,-0.813 -0.133,-0.07 -0.305,-0.07 -0.52,0 -0.214,0.07 -0.347,0.152 -0.398,0.246 -0.055,0.094 -0.082,0.473 -0.082,1.129 l 0.082,0.391 c 0.105,0.492 0.133,0.906 0.078,1.234 z"
         inkscape:connector-curvature="0" /><path
         id="path498"
         style="fill:#fffdf4;fill-rule:evenodd"
         d="m 3.223,29.053 0.121,0.07 0.039,-0.281 -0.16,0.211 z"
         inkscape:connector-curvature="0" /><path
         id="path500"
         style="fill:#fffdf4;fill-rule:evenodd"
         d="m 11.301,24.252 c 0,-0.754 -0.012,-1.192 -0.039,-1.309 -0.078,-0.68 -0.121,-1.351 -0.121,-2.012 l -0.079,-2.257 c 0,-0.118 0.04,-0.293 0.122,-0.532 0.078,-0.234 0.117,-0.422 0.117,-0.562 -0.051,-0.211 -0.067,-0.367 -0.039,-0.461 0.027,-0.094 0.082,-0.234 0.16,-0.422 0,-0.496 -0.215,-0.777 -0.641,-0.848 -0.293,-0.046 -0.504,0 -0.64,0.141 -0.211,0.449 -0.211,0.93 0,1.449 0.347,0.778 0.535,1.375 0.562,1.801 l 0.039,1.164 c 0.16,0.684 0.238,1.199 0.238,1.551 l 0,1.098 c 0,0.562 -0.039,1.128 -0.117,1.691 l -0.039,0.105 c 0.106,-0.093 0.223,-0.105 0.36,-0.035 l 0.117,-0.562 z"
         inkscape:connector-curvature="0" /><path
         id="path502"
         style="fill:#d2c59a;fill-rule:evenodd"
         d="M 4.461,28.029 C 4.438,28.369 4.41,28.635 4.383,28.822 4.414,28.638 4.551,28.447 4.781,28.24 4.996,28.053 5.207,27.935 5.422,27.888 l 1.558,0 c 1.735,0 2.708,-0.011 2.922,-0.035 0,-0.027 0.039,-0.109 0.121,-0.25 l 0.039,-0.316 0,-0.035 -0.039,0 -0.043,0.14 -4.078,0.106 c -0.238,0 -0.425,0.047 -0.558,0.14 -0.16,0.094 -0.27,0.145 -0.321,0.145 0,-0.168 0.094,-0.355 0.278,-0.566 0.137,-0.707 0.187,-1.379 0.16,-2.012 -0.023,-1.082 -0.332,-1.578 -0.918,-1.485 -0.16,0.024 -0.348,0.083 -0.563,0.176 0.348,0 0.629,0.11 0.844,0.321 0.078,0.07 0.145,0.246 0.199,0.527 l 0.118,1.168 c 0.027,0.422 -0.118,0.879 -0.438,1.375 -0.133,0.187 -0.215,0.437 -0.242,0.742 z"
         inkscape:connector-curvature="0" /><path
         id="path504"
         style="fill:#d2c59a;fill-rule:evenodd"
         d="m 11.703,28.345 c -0.082,0.211 -0.133,0.333 -0.16,0.352 0.16,-0.019 0.414,0.023 0.758,0.145 l 0.441,-0.036 c 0.32,-0.023 0.52,0.118 0.602,0.422 0.051,0.211 0.211,0.387 0.48,0.532 0.156,0.093 0.278,0.128 0.36,0.105 l 0.359,-0.285 c 0.187,-0.117 0.332,-0.117 0.437,0 0.082,0.094 0.043,0.332 -0.117,0.707 0,0.496 0.012,0.766 0.039,0.812 0.453,-0.543 0.774,-1.011 0.961,-1.41 l -0.601,-0.601 -0.321,-0.461 c -0.613,-0.703 -1.652,-0.926 -3.117,-0.668 0,0.07 -0.043,0.199 -0.121,0.386 z"
         inkscape:connector-curvature="0" /><path
         id="path506"
         style="fill:#d2c59a;fill-rule:evenodd"
         d="m 10.504,15.463 0.719,0.316 0.398,0.566 c 0.27,0.422 0.402,1.118 0.402,2.083 l -0.082,3.742 c 0.266,-3.18 0.403,-4.825 0.403,-4.942 0,-0.566 -0.215,-1.074 -0.641,-1.519 -0.426,-0.469 -0.828,-0.555 -1.199,-0.246 z"
         inkscape:connector-curvature="0" /><path
         id="path508"
         style="fill:#d2c59a;fill-rule:evenodd"
         d="m 1.301,28.697 0.121,0.18 0.32,-0.141 0.121,-0.039 c 0.239,-0.043 0.598,-0.07 1.078,-0.07 0.215,0 0.348,-0.059 0.403,-0.176 l 0.078,-0.777 -0.039,0.035 -0.039,0.074 c -0.028,0.164 -0.082,0.258 -0.16,0.281 -0.321,-0.047 -0.547,-0.07 -0.68,-0.07 l -0.242,0 C 1.25,28.299 0.93,28.533 1.301,28.697 Z"
         inkscape:connector-curvature="0" /><path
         id="path510"
         style="fill:#a99f7b;fill-rule:evenodd"
         d="m 11.824,27.638 0,0.321 c 1.465,-0.262 2.504,-0.035 3.117,0.668 l 0.321,0.461 0.601,0.601 c 0.321,-0.496 0.371,-0.836 0.16,-1.027 -0.214,-0.188 -0.375,-0.305 -0.48,-0.352 -0.105,-0.047 -0.481,-0.175 -1.121,-0.386 -0.934,-0.286 -1.801,-0.379 -2.598,-0.286 z"
         inkscape:connector-curvature="0" /><path
         id="path512"
         style="fill:#a99f7b;fill-rule:evenodd"
         d="m 5.902,27.498 4.078,-0.106 0.043,-0.14 -2.761,-0.106 -1.961,0.141 0,-0.07 c -0.184,0.211 -0.278,0.398 -0.278,0.566 0.051,0 0.161,-0.051 0.321,-0.145 0.133,-0.093 0.32,-0.14 0.558,-0.14 z"
         inkscape:connector-curvature="0" /><path
         id="path514"
         style="fill:#a9985f;fill-rule:evenodd"
         d="m 3.184,28.064 c 0.078,-0.023 0.132,-0.117 0.16,-0.281 l 0.039,-0.074 -1.121,0.285 0.242,0 c 0.133,0 0.359,0.023 0.68,0.07 z"
         inkscape:connector-curvature="0" /></g></g><metadata
     id="metadata9648"><rdf:RDF><cc:Work><dc:format>image/svg+xml</dc:format><dc:type
           rdf:resource="http://purl.org/dc/dcmitype/StillImage" /><cc:license
           rdf:resource="http://creativecommons.org/publicdomain/zero/1.0/" /><dc:publisher><cc:Agent
             rdf:about="http://openclipart.org/"><dc:title>Openclipart</dc:title></cc:Agent></dc:publisher><dc:title></dc:title></cc:Work><cc:License
         rdf:about="http://creativecommons.org/publicdomain/zero/1.0/"><cc:permits
           rdf:resource="http://creativecommons.org/ns#Reproduction" /><cc:permits
           rdf:resource="http://creativecommons.org/ns#Distribution" /><cc:permits
           rdf:resource="http://creativecommons.org/ns#DerivativeWorks" /></cc:License></rdf:RDF></metadata></svg>