<svg height="504pt" viewBox="0 -1 504.1892 504" width="504pt" xmlns="http://www.w3.org/2000/svg"><path d="m471.648438 469.058594c-19.144532 9.464844-39.113282 17.15625-59.664063 22.976562-20.574219 5.832032-41.703125 9.476563-63.042969 10.867188-10.929687.648437-21.882812.675781-32.816406.078125-10.929688-.597657-21.820312-1.8125-32.617188-3.636719-38.710937-6.835938-75.953124-20.296875-110.089843-39.796875-34.15625-19.457031-65.886719-42.890625-94.535157-69.804687-14.078124-12.878907-27.144531-26.828126-39.074218-41.71875-11.949219-14.894532-22.132813-31.121094-30.351563-48.359376-8.675781-18.417968-11.472656-39.0625-8.015625-59.128906 3.328125-19.085937 11.332032-37.050781 23.289063-52.292968 3.484375-4.476563 7.273437-8.703126 11.347656-12.648438 3.992187-3.871094 8.265625-7.449219 12.777344-10.695312-9.75-18.453126-16.75-38.230469-20.78125-58.707032-2.117188-12.023437-2.015625-24.332031.300781-36.316406 2.851562-14.117188 8.789062-27.425781 17.390625-38.976562 9.511719-11.890626 21.570313-21.496094 35.285156-28.105469 2.011719-1.007813 4.144531-1.753907 6.347657-2.214844 2.191406-.464844 4.441406-.59375 6.671874-.390625 5.285157.316406 10.429688 1.84375 15.03125 4.460938 3.648438 2.289062 6.0625 6.105468 6.574219 10.378906.640625 4.242187-.246093 8.570312-2.503906 12.214844-2.25 3.691406-5.546875 6.628906-9.472656 8.441406-5.167969 2.40625-10.101563 5.296875-14.730469 8.632812-4.40625 3.183594-8.433594 6.867188-11.996094 10.976563-3.855468 5.691406-6.394531 12.167969-7.429687 18.960937-1.050781 6.792969-1.207031 13.691406-.46875 20.523438.410156 4.40625 1.054687 8.78125 1.933593 13.117187.867188 4.347657 1.929688 8.664063 3.101563 12.917969.652344 2.429688 1.34375 4.839844 2.070313 7.246094.726562 2.410156 1.488281 4.816406 2.269531 7.246094.214843.519531 1.148437 3.6875 2.136719 6.726562.46875 2.109375 1.304687 4.117188 2.460937 5.945312 10.308594-4.761718 21.265625-7.96875 32.511719-9.515624 11.25-1.496094 22.6875-.679688 33.613281 2.398437 1.652344.476563 3.363281.953125 5.109375 1.464844 1.75.507812 3.527344 1.050781 5.304688 1.660156 1.695312.519531 3.386718 1.105469 5 1.765625 1.570312.628906 3.089843 1.375 4.546874 2.226562 36.441407 22.441407 66.171876 54.285157 86.0625 92.179688 22.351563 40.550781 37.59375 84.625 45.0625 130.320312 19.09375 6.941407 37.410157 15.851563 54.660157 26.589844 14.960937 9.066406 27.382812 21.773438 36.109375 36.933594 15.34375-1.535156 30.769531-2.074219 46.179687-1.617188 12.621094.160157 25.109375 2.589844 36.871094 7.171876 7.375 4.296874 12.015625 8.808593 12.191406 13.679687.171875 4.867187-4.121093 10.097656-14.621093 15.824219zm0 0" fill="#c03a2b"/><path d="m159.5625 416.136719c-1.804688 0-3.566406-.566407-5.035156-1.613281-15.929688-11.382813-31.210938-23.648438-45.773438-36.734376-12.820312-11.527343-23.160156-21.988281-30.902344-30.324218-2.167968-2.261719-2.949218-5.511719-2.042968-8.511719.90625-2.996094 3.355468-5.273437 6.414062-5.957031 3.054688-.6875 6.242188.332031 8.339844 2.65625 7.472656 8.039062 17.453125 18.136718 29.832031 29.261718 14.066407 12.640626 28.828125 24.488282 44.21875 35.480469 3.074219 2.191407 4.375 6.121094 3.222657 9.714844-1.152344 3.59375-4.5 6.03125-8.273438 6.027344zm0 0" fill="#802f34"/><path d="m267.996094 467.503906c-.351563 0-.703125-.019531-1.050782-.0625-.355468-.042968-.710937-.105468-1.054687-.195312-10.527344-2.632813-20.898437-5.851563-31.066406-9.636719-10.527344-3.917969-20.84375-8.375-30.914063-13.359375-2.820312-1.347656-4.699218-4.109375-4.914062-7.230469-.214844-3.117187 1.261718-6.113281 3.871094-7.839843 2.609374-1.722657 5.945312-1.910157 8.730468-.488282 9.511719 4.707032 19.257813 8.921875 29.203125 12.621094 9.585938 3.574219 19.363281 6.609375 29.285157 9.09375 4.246093 1.066406 7.035156 5.125 6.503906 9.472656-.53125 4.34375-4.214844 7.613282-8.59375 7.625zm0 0" fill="#802f34"/><path d="m504.1875 71.609375c-15.726562 14.308594-28.542969 31.519531-37.746094 50.6875-8.808594 18.945313-13.59375 39.503906-14.058594 60.390625-.390624 16.921875-.066406 34.492188-.96875 51.914062-.53125 17.292969-3.328124 34.441407-8.316406 51.003907-7.164062 20.648437-21.304687 38.148437-39.984375 49.488281-18.476562 11.722656-39.621093 18.582031-61.460937 19.9375-4.011719-2.707031-7.53125-6.078125-10.40625-9.96875-3.246094-3.617188-5.863282-7.757812-7.730469-12.246094l2.515625-.175781 2.515625-.171875c10.796875-3.507812 20.300781-10.160156 27.292969-19.101562 8.4375-11.992188 14.519531-25.476563 17.917968-39.734376-8.296874 3.128907-16.820312 6.40625-25.503906 9.039063-8.59375 2.742187-17.476562 4.484375-26.472656 5.1875-1.902344.117187-3.8125.152344-5.714844.089844-1.90625-.0625-3.808594-.222657-5.695312-.488281-.148438-.015626-.292969-.046876-.433594-.085938-.261719-.0625-.484375-.238281-.609375-.480469-.058594-.109375-.109375-.222656-.15625-.335937-.507813-1.234375-.902344-2.503906-1.292969-3.777344-.386718-1.273438-.765625-2.546875-1.242187-3.789062-.546875-1.441407-1.105469-2.882813-1.671875-4.316407-.570313-1.433593-1.144532-2.867187-1.726563-4.292969-1.148437-2.816406-2.335937-5.613281-3.554687-8.394531-1.21875-2.785156-2.460938-5.558593-3.726563-8.320312-.066406-.148438-.136719-.300781-.195312-.453125-.058594-.152344-.101563-.3125-.125-.472656.011719-1.027344.339843-2.027344.9375-2.859376.558593-.90625 1.167969-1.777343 1.820312-2.613281.632813-.84375 1.320313-1.636719 2.066407-2.378906.746093-.738281 1.546874-1.421875 2.394531-2.042969 2.492187-1.785156 5.324219-3.027344 8.324219-3.660156 2.996093-.644531 6.085937-.765625 9.125-.355469 37.574218 5.035157 62.371093.542969 77.589843-11.148437 15.21875-11.695313 20.859375-30.589844 20.121094-54.371094h-.011719c-4.292968 4.582031-8.921875 8.832031-13.851562 12.71875-4.925782 3.902344-10.480469 6.9375-16.421875 8.976562-5.96875 1.886719-12.3125 2.234376-18.453125 1.019532-6.113282-1.253906-12.128906-2.960938-17.992188-5.097656-5.164062-1.691407-10.351562-3.273438-15.566406-4.675782-5.21875-1.398437-10.46875-2.613281-15.761719-3.566406-6.796875-1.152344-13.683593-1.683594-20.578125-1.597656-6.867187.035156-13.746094.511718-20.644531 1.074218-2.558594.175782-5.183594.242188-7.820313.21875-2.636718-.023437-5.28125-.128906-7.886718-.304687-1.859375-.144531-3.707032-.40625-5.53125-.78125-1.839844-.355469-3.667969-.769531-5.488282-1.117187-.167968-.03125-.335937-.0625-.5-.109376-.167968-.039062-.328124-.097656-.484374-.171874-.597657-.371094-1.105469-.875-1.472657-1.476563-.4375-.621094-.835937-1.289063-1.214843-1.765625-.558594-.695312-1.121094-1.386719-1.691407-2.070312-.570312-.6875-1.140625-1.367188-1.71875-2.046876-1.703125-1.996093-3.449219-3.957031-5.238281-5.878906-1.785156-1.921875-3.609375-3.8125-5.464844-5.667968-.519531-.609376-1.085937-1.214844-1.683594-1.835938-.597656-.617188-1.222656-1.246094-1.875-1.894531.347657-6.660157 2.875-13.015625 7.191407-18.09375 4.503906-6.378907 10.46875-13.0625 15.980469-19.917969-8.273438-2.597656-17.109376-2.808594-25.496094-.605469-7.085938 1.953125-13.570313 5.648438-18.859375 10.75-1.46875 1.425781-3.375 2.308594-5.410157 2.511719-2.03125.191406-4.066406-.335938-5.75-1.484375-2.292968-1.554687-4.621093-3.066406-6.984374-4.535156-2.363282-1.472657-4.761719-2.902344-7.191407-4.292969-1.375-.800781-2.769531-1.53125-4.164062-2.203125-1.394531-.675781-2.804688-1.296875-4.203125-1.867187-2.160156-.878907-3.894532-2.566407-4.820313-4.707032-.929687-2.136718-.96875-4.554687-.113281-6.722656 12.253906-30.589844 38.894531-53.105469 71.101562-60.085938 34.539063-8.835937 78.792969-5.25 129.382813 14.40625-40.207031 27.195313-40.234375 55.664063-24.316406 69.34375 15.921875 13.683594 47.785156 12.585938 71.351562-19.359374 9.925781-15.398438 24.738281-27.019532 42.058594-32.988282 14.371094-3.316406 29.027344-5.257812 43.765625-5.800781zm0 0" fill="#f29c1f"/><path d="m157.78125 225.132812c-16.640625-1.035156-32.539062-7.253906-45.464844-17.789062-9.136718-7.519531-14.019531-14.542969-19.984375-14.851562-13.535156 27.292968-30.609375 54.5-44.214843 60.746093-13.601563 6.25-23.734376-8.460937-23.386719-64.996093v-.089844c3.503906-4.453125 7.304687-8.664063 11.378906-12.601563 3.988281-3.855469 8.246094-7.414062 12.746094-10.652343-9.75-18.453126-16.75-38.230469-20.78125-58.707032-2.117188-12.023437-2.015625-24.332031.300781-36.316406 2.851562-14.117188 8.789062-27.425781 17.390625-38.976562 9.511719-11.890626 21.570313-21.496094 35.285156-28.105469 2.011719-1.007813 4.144531-1.753907 6.347657-2.214844 2.191406-.464844 4.441406-.59375 6.671874-.390625 5.285157.316406 10.429688 1.84375 15.03125 4.460938 3.648438 2.289062 6.0625 6.105468 6.574219 10.378906.640625 4.242187-.246093 8.570312-2.503906 12.214844-2.25 3.691406-5.546875 6.628906-9.472656 8.441406-5.167969 2.40625-10.101563 5.296875-14.730469 8.632812-4.40625 3.183594-8.433594 6.867188-11.996094 10.976563-3.855468 5.691406-6.394531 12.167969-7.429687 18.960937-1.050781 6.792969-1.207031 13.691406-.46875 20.523438.410156 4.40625 1.054687 8.78125 1.933593 13.117187.867188 4.347657 1.929688 8.664063 3.101563 12.917969.652344 2.429688 1.34375 4.839844 2.070313 7.246094.726562 2.410156 1.488281 4.816406 2.269531 7.246094.214843.519531 1.148437 3.6875 2.136719 6.726562.46875 2.109375 1.304687 4.117188 2.460937 5.945312 10.308594-4.761718 21.265625-7.96875 32.511719-9.515624 11.25-1.496094 22.6875-.679688 33.613281 2.398437 1.652344.476563 3.34375.953125 5.066406 1.464844 1.726563.507812 3.484375 1.050781 5.261719 1.660156-6.558594 9.46875-9.535156 20.960937-8.40625 32.421875 1.789062 12.804688 6.886719 24.925781 14.785156 35.160156 2 2.75 2.136719 6.4375.347656 9.332032-1.746093 2.941406-5.046874 4.59375-8.445312 4.234374zm0 0" fill="#24ae5f"/><path d="m475.378906 440.335938c-19.441406 8.253906-40.320312 12.585937-61.441406 12.746093-43.097656.511719-85.996094-5.929687-127.042969-19.082031-62.65625-18.441406-108.105469-66.625-139.652343-115.957031-24.007813-38.332031-42.90625-79.632813-56.210938-122.859375.21875-.476563.433594-.933594.652344-1.378906.214844-.445313.433594-.878907.648437-1.3125 5.816407.304687 10.609375 7.007812 19.332031 14.308593 12.152344 10.171875 27.109376 16.410157 42.890626 17.886719.519531.085938 1.039062.175781 1.570312.25s1.074219.140625 1.640625.183594c3.402344.390625 6.71875-1.25 8.46875-4.199219 1.785156-2.890625 1.660156-6.570313-.3125-9.335937-7.917969-10.234376-13.03125-22.355469-14.828125-35.167969-1.128906-11.46875 1.847656-22.960938 8.40625-32.433594h.085938c1.695312.519531 3.386718 1.105469 5 1.765625 1.570312.628906 3.089843 1.375 4.546874 2.226562 27.574219 16.457032 51.191407 38.78125 69.175782 65.386719 19.777344 28.695313 35.292968 60.101563 46.066406 93.246094 3.472656 10.457031 6.554688 21.0625 9.210938 31.738281 2.660156 10.675782 4.890624 21.414063 6.671874 32.128906 19.09375 6.941407 37.410157 15.851563 54.660157 26.589844 14.960937 9.066406 27.382812 21.773438 36.109375 36.933594 15.34375-1.535156 30.769531-2.074219 46.179687-1.617188 12.621094.160157 25.109375 2.589844 36.871094 7.171876l.648437.390624zm0 0" fill="#e64c3c"/></svg>